<?xml version="1.0" standalone="no"?>
<!DOCTYPE svg PUBLIC "-//W3C//DTD SVG 20010904//EN"
 "http://www.w3.org/TR/2001/REC-SVG-20010904/DTD/svg10.dtd">
<svg version="1.0" xmlns="http://www.w3.org/2000/svg"
 width="256.000000pt" height="91.000000pt" viewBox="0 0 1200.000000 712.000000"
 preserveAspectRatio="xMidYMid meet">

<g transform="translate(0.000000,712.000000) scale(0.100000,-0.100000)"
fill="#000000" stroke="none">
<path d="M0 7055 l0 -35 6000 0 6000 0 0 35 0 35 -6000 0 -6000 0 0 -35z"/>
<path d="M0 6830 l0 -40 6000 0 6000 0 0 40 0 40 -6000 0 -6000 0 0 -40z"/>
<path d="M0 6600 l0 -40 6000 0 6000 0 0 40 0 40 -6000 0 -6000 0 0 -40z"/>
<path d="M0 6370 l0 -40 6000 0 6000 0 0 40 0 40 -6000 0 -6000 0 0 -40z"/>
<path d="M0 6140 l0 -40 6000 0 6000 0 0 40 0 40 -6000 0 -6000 0 0 -40z"/>
<path d="M0 5910 l0 -40 6000 0 6000 0 0 40 0 40 -6000 0 -6000 0 0 -40z"/>
<path d="M0 5685 l0 -45 6000 0 6000 0 0 45 0 45 -6000 0 -6000 0 0 -45z"/>
<path d="M6546 5535 l-39 -35 -529 0 c-516 0 -529 0 -545 20 -10 11 -23 20
-30 20 -7 0 -21 -9 -30 -20 -17 -20 -30 -20 -2695 -20 l-2678 0 0 -45 0 -45
2654 -2 2654 -3 -42 -72 -41 -73 -386 0 -386 0 -23 25 c-13 14 -30 25 -37 25
-7 0 -19 -11 -25 -25 l-11 -25 -2179 0 -2178 0 0 -40 0 -40 2164 0 2165 0 -26
-75 -25 -75 -2139 0 -2139 0 0 -40 0 -40 1861 0 1862 0 -7 -41 c-4 -23 -13
-56 -21 -75 l-14 -34 -1840 0 -1841 0 0 -40 0 -40 1830 0 c1128 0 1830 -4
1830 -9 0 -38 -24 -63 -99 -101 -75 -37 -87 -40 -164 -40 l-83 0 -73 52 c-83
58 -97 57 -116 -8 l-11 -39 -1557 -3 -1557 -2 0 -40 0 -40 1270 0 1270 0 0
-70 0 -70 -1270 0 -1270 0 0 -45 0 -45 1270 0 1271 0 -3 -72 -3 -73 -1267 -3
-1268 -2 0 -40 0 -40 1270 0 1270 0 0 -75 0 -75 -1270 0 -1270 0 0 -40 0 -40
1270 0 1270 0 0 -75 0 -75 -1270 0 -1270 0 0 -40 0 -40 1270 0 1270 0 0 -65 0
-65 -1270 0 -1270 0 0 -645 0 -645 5984 0 c3291 0 5991 -3 6000 -6 15 -6 16
56 16 650 l0 656 -1275 0 -1275 0 0 60 0 60 1275 0 1275 0 0 40 0 40 -1272 2
-1273 3 0 70 0 70 1273 3 1272 2 0 40 0 40 -1270 0 -1270 0 0 75 0 75 1270 0
1270 0 0 40 0 40 -1270 0 -1270 0 0 75 0 75 1270 0 1270 0 0 45 0 45 -1275 0
-1276 0 3 68 3 67 1273 3 1272 2 0 40 0 40 -1557 2 -1558 3 -14 57 c-19 80
-33 82 -124 15 -40 -30 -82 -59 -94 -66 -45 -23 -99 -13 -203 39 -55 28 -100
54 -100 59 0 5 -3 16 -6 25 -6 15 159 16 1825 16 l1831 0 0 40 0 40 -1842 2
-1842 3 -18 55 c-9 30 -17 63 -17 73 -1 16 94 17 1859 17 l1860 0 0 40 0 40
-2137 2 -2138 3 -22 60 c-12 33 -22 66 -22 73 -1 9 437 12 2159 12 l2160 0 0
40 0 40 -2179 0 -2178 0 -9 31 c-16 57 -38 59 -87 11 l-43 -42 -359 0 -360 0
-41 73 -42 72 2649 3 2649 2 0 45 0 45 -2674 0 -2674 0 -21 35 c-11 19 -26 35
-33 35 -7 -1 -31 -16 -52 -35z m18 -332 c3 -142 9 -634 12 -1093 l7 -835 -287
-94 c-158 -51 -290 -91 -293 -87 -7 7 26 1968 33 1976 13 13 510 389 515 389
3 1 9 -115 13 -256z m-844 44 l255 -174 -3 -204 c-11 -697 -32 -1772 -35
-1776 -3 -2 -123 31 -267 74 l-263 78 7 490 c3 270 9 763 12 1097 6 553 8 606
23 598 9 -4 131 -87 271 -183z m650 155 c0 -4 -40 -38 -90 -75 l-90 -67 -192
0 -192 0 -103 68 c-56 37 -103 70 -103 75 0 4 173 7 385 7 212 0 385 -3 385
-8z m1195 -414 c-4 -134 -12 -559 -20 -945 -7 -385 -15 -705 -18 -710 -7 -11
-506 -208 -511 -202 -3 4 31 1494 36 1581 l3 46 250 236 c138 129 253 235 258
236 4 0 5 -109 2 -242z m-2838 -61 l211 -199 6 -101 c8 -153 37 -1519 32
-1524 -5 -5 -495 185 -508 196 -6 6 -38 1491 -38 1770 l0 133 43 -38 c23 -21
137 -127 254 -237z m417 191 c-20 -35 -40 -69 -46 -75 -8 -10 -61 -13 -204
-13 l-194 0 -78 75 -77 74 317 1 317 0 -35 -62z m926 55 c0 -5 -14 -18 -31
-30 l-32 -21 -33 21 c-19 12 -34 25 -34 30 0 4 29 7 65 7 36 0 65 -3 65 -7z
m1269 -68 l-77 -75 -173 2 -173 3 -38 65 c-21 36 -38 68 -38 72 0 5 129 8 288
8 l287 0 -76 -75z m-3089 -158 c0 -11 -34 -104 -42 -113 -4 -6 -35 -17 -68
-23 l-60 -12 -120 68 c-66 37 -120 71 -120 75 0 4 92 8 205 8 113 0 205 -1
205 -3z m740 -5 c0 -12 -188 -13 -195 -2 -4 6 32 10 94 10 56 0 101 -4 101 -8z
m2173 -3 c-7 -7 -21 -7 -44 -1 l-34 10 45 1 c31 1 41 -2 33 -10z m937 3 c0 -4
-48 -36 -108 -69 -106 -61 -108 -61 -154 -52 -46 10 -47 11 -67 70 l-20 59
175 0 c96 0 174 -4 174 -8z m-3070 -17 c0 -9 -47 -99 -62 -117 -12 -15 -18
-12 -73 37 -33 29 -58 56 -55 59 3 2 39 9 80 14 98 12 110 13 110 7z m2099
-12 c5 -4 -80 -93 -89 -93 -7 0 -60 93 -60 104 0 7 141 -3 149 -11z m1071
-310 c0 -175 -3 -536 -7 -803 l-6 -486 -191 -101 c-105 -56 -192 -101 -193
-100 -1 2 4 318 12 702 8 385 15 745 15 800 l0 101 178 101 c97 56 180 102
185 102 4 1 7 -142 7 -316z m-4220 187 l178 -101 6 -182 c9 -273 29 -1417 25
-1421 -5 -4 -367 188 -378 200 -10 10 -24 1604 -15 1604 4 0 86 -45 184 -100z
m215 -12 c-11 -36 -18 -39 -50 -18 -21 14 -25 20 -15 24 8 2 22 7 30 9 33 11
41 7 35 -15z m3645 13 c0 -5 -7 -11 -15 -15 -9 -3 -15 0 -15 9 0 8 7 15 15 15
8 0 15 -4 15 -9z m625 -206 c117 -67 116 -64 44 -116 -35 -24 -68 -47 -75 -51
-8 -5 -20 22 -39 90 -15 53 -30 103 -32 110 -9 22 22 12 102 -33z m-4851 -52
c-13 -49 -27 -100 -31 -116 -3 -15 -8 -29 -12 -31 -3 -2 -39 20 -79 49 l-73
53 38 30 c37 29 161 102 175 102 4 0 -4 -39 -18 -87z m5186 -592 l0 -659 -162
-70 c-90 -39 -180 -78 -201 -87 l-38 -16 6 153 c4 84 12 362 20 617 12 426 15
465 32 481 29 28 325 240 334 240 5 0 9 -291 9 -659z m-5414 502 l174 -127 0
-95 c0 -53 7 -301 15 -551 8 -250 15 -485 15 -522 l0 -66 -192 83 -193 82 -3
662 c-1 363 1 661 4 661 4 0 85 -57 180 -127z m-289 35 c-2 -7 -10 -39 -17
-70 l-13 -58 -120 0 -120 0 -103 63 c-57 34 -104 65 -104 70 0 4 108 7 241 7
189 0 240 -3 236 -12z m6223 4 c0 -5 -45 -36 -101 -70 l-100 -62 -93 0 -93 0
-15 70 -15 70 209 0 c114 0 208 -4 208 -8z m80 -469 c0 -241 -3 -508 -7 -594
l-6 -156 -196 -81 c-108 -45 -204 -84 -213 -88 -17 -6 -18 24 -18 543 l0 549
213 132 c116 72 215 131 220 132 4 0 7 -197 7 -437z m-6576 272 l203 -125 6
-547 c4 -300 5 -549 2 -551 -2 -3 -101 35 -219 84 l-216 89 0 510 c0 281 -3
548 -7 594 -6 78 -5 84 11 78 10 -4 109 -63 220 -132z m216 -51 c0 -14 -3 -14
-15 -4 -8 7 -15 14 -15 16 0 2 7 4 15 4 8 0 15 -7 15 -16z m430 -1164 c64 -18
62 -11 91 -272 16 -134 28 -251 28 -260 1 -15 -8 -18 -46 -18 l-48 0 -83 149
-82 149 -46 7 c-25 3 -48 4 -51 2 -2 -3 25 -63 60 -133 88 -177 88 -174 39
-174 -22 0 -44 6 -50 13 -19 22 -271 461 -267 465 2 2 12 -1 23 -7 39 -21 60
-13 73 27 6 20 16 43 22 50 12 15 284 17 337 2z m2419 -25 l84 -27 86 27 c84
27 196 43 224 32 12 -4 2 -56 -52 -279 l-67 -273 -63 -3 -64 -3 8 155 7 156
-61 0 -61 0 0 -155 0 -155 -59 0 c-48 0 -61 3 -65 18 -53 178 -146 515 -146
528 0 15 9 16 73 11 39 -3 110 -17 156 -32z m2997 0 c8 -19 20 -35 28 -35 7 0
39 11 70 25 31 14 59 25 62 25 12 0 -8 -37 -153 -287 l-147 -253 -43 0 c-24 0
-43 2 -43 5 0 3 34 73 76 157 l76 151 -39 -6 c-21 -4 -45 -7 -54 -7 -9 0 -47
-57 -99 -150 l-83 -150 -50 0 -49 0 6 38 c3 20 17 143 32 272 14 129 28 238
30 242 3 4 86 8 185 8 l180 0 15 -35z m-4735 -6 c56 -30 59 -34 54 -63 -4 -17
-23 -128 -44 -246 l-37 -215 -62 -3 c-73 -3 -65 -19 -83 176 l-11 132 -62 0
-62 0 18 -132 c26 -195 31 -178 -56 -178 l-73 0 -68 238 c-37 130 -70 244 -72
253 -4 13 1 15 20 12 19 -4 29 2 46 26 l22 31 206 0 205 0 59 -31z m719 22 c0
-5 -30 -131 -66 -280 l-66 -271 -59 0 -59 0 0 155 0 155 -61 0 -61 0 7 -156 8
-155 -63 3 -63 3 -69 240 c-37 132 -68 245 -68 251 0 6 9 23 21 38 l20 26 290
0 c168 0 289 -4 289 -9z m700 0 c0 -9 -100 -428 -121 -503 l-10 -38 -61 0 -61
0 5 155 5 155 -63 0 -62 0 5 -156 6 -155 -63 3 -63 3 -73 255 c-40 140 -74
258 -74 263 0 4 16 1 35 -7 32 -14 39 -13 87 9 51 23 63 24 281 24 135 1 227
-3 227 -8z m1410 0 c8 -1 39 1 68 5 28 4 52 5 52 3 0 -2 -36 -125 -78 -274
l-78 -270 -63 -3 -62 -3 7 156 7 155 -62 0 -61 0 0 -155 0 -155 -59 0 -59 0
-66 270 c-36 148 -66 272 -66 275 0 5 470 1 520 -4z m765 -11 c10 -12 25 -18
33 -15 17 6 18 7 -66 -285 l-68 -235 -59 0 -60 0 4 153 3 152 -61 0 -61 0 0
-155 0 -156 -57 3 -58 3 -67 265 c-36 146 -67 271 -67 278 -1 9 62 12 282 12
273 0 285 -1 302 -20z m601 3 c12 -17 15 -17 60 0 26 9 48 16 50 14 2 -2 -62
-232 -141 -504 l-16 -53 -74 0 c-41 0 -75 4 -75 8 0 15 30 247 36 275 l6 27
-64 0 -65 0 -14 -152 -14 -153 -62 -3 c-52 -2 -62 0 -66 15 -3 10 -24 129 -47
266 -34 199 -40 250 -30 262 10 13 53 15 258 15 221 0 246 -2 258 -17z"/>
<path d="M5880 2087 c-32 -16 -37 -64 -39 -373 l-1 -231 -157 -6 c-87 -4 -241
-7 -343 -7 l-186 0 -74 136 c-86 157 -107 176 -192 182 -116 9 -193 -48 -266
-195 -72 -144 -92 -242 -63 -311 23 -54 50 -62 226 -62 l155 0 0 -108 c0 -103
1 -110 25 -132 20 -19 37 -24 79 -24 76 -1 102 16 110 71 3 25 6 75 6 111 l0
65 663 -8 662 -7 44 -26 c36 -21 58 -26 111 -26 56 0 75 5 123 32 l58 32 147
0 c81 -1 162 3 180 9 53 16 115 56 140 90 l23 31 -7 368 c-7 404 -5 392 -69
392 -65 0 -64 5 -71 -322 l-7 -298 -95 0 -95 0 7 120 c5 77 3 126 -3 139 -6
11 -34 27 -61 36 -41 14 -58 27 -91 71 -44 60 -73 83 -121 93 -60 13 -95 -3
-171 -76 -75 -73 -110 -96 -164 -108 l-33 -7 0 -134 0 -134 -165 0 -165 0 0
293 c0 160 -4 297 -8 304 -8 12 -55 33 -75 33 -7 0 -23 -6 -37 -13z m874 -351
c20 -15 44 -39 53 -52 21 -33 39 -218 24 -256 l-10 -26 -138 -4 c-146 -4 -165
-1 -185 35 -16 29 -15 162 1 210 15 43 64 105 95 118 40 17 122 4 160 -25z
m-1836 -81 c42 -35 55 -74 50 -153 -4 -79 -28 -120 -83 -147 -41 -19 -131 -31
-167 -22 -48 12 -61 90 -32 186 11 38 30 68 68 107 46 48 57 54 93 54 30 0 50
-7 71 -25z"/>
<path d="M9850 2082 l-35 -17 0 -278 c0 -264 -1 -279 -19 -293 -27 -19 -86
-17 -112 4 -37 30 -43 52 -37 142 8 117 0 130 -76 130 -45 0 -65 -5 -86 -22
-27 -21 -27 -23 -23 -107 8 -137 -12 -171 -97 -171 -46 0 -78 40 -99 127 -21
81 -46 125 -81 141 -19 9 -193 12 -648 12 -589 0 -624 -1 -664 -19 -65 -30
-92 -80 -105 -194 -10 -81 -9 -105 5 -162 18 -74 53 -127 95 -149 21 -10 153
-15 638 -20 535 -5 616 -4 656 9 51 18 91 56 105 100 l10 30 174 3 c96 1 185
0 197 -3 13 -3 45 -26 71 -50 26 -24 59 -49 74 -54 18 -7 364 -8 1063 -4 1032
6 1037 6 1060 27 28 24 44 111 44 241 0 94 -12 145 -43 180 l-22 24 -660 26
c-363 14 -677 25 -699 25 -31 0 -45 7 -77 39 -33 32 -39 45 -39 80 0 31 6 48
25 66 l24 25 278 2 c153 1 312 2 355 3 67 0 80 3 102 24 32 30 32 42 4 68 -23
20 -24 20 -441 3 -465 -19 -448 -16 -492 -91 -31 -52 -28 -179 5 -238 48 -85
-1 -79 690 -92 338 -6 631 -15 652 -20 53 -13 82 -40 74 -67 -17 -51 0 -50
-873 -38 -446 6 -814 14 -817 17 -3 3 -8 117 -11 253 -4 268 -4 268 -62 293
-41 16 -41 16 -83 -5z m-815 -481 l110 -6 14 -41 c14 -39 13 -44 -11 -90 l-26
-49 -584 1 c-418 1 -591 5 -606 13 -30 16 -47 82 -32 127 6 19 12 35 13 35 1
1 121 7 267 14 250 12 609 10 855 -4z"/>
<path d="M7462 2074 l-22 -15 0 -435 0 -435 36 -15 c39 -16 96 -11 114 11 8 9
9 139 4 441 -7 396 -9 429 -26 446 -22 22 -76 24 -106 2z"/>
<path d="M1383 2035 c-42 -18 -65 -56 -65 -107 1 -54 28 -89 79 -106 53 -17
104 2 133 50 35 58 21 115 -39 155 -39 26 -63 28 -108 8z"/>
<path d="M2282 2024 c-26 -18 -52 -65 -52 -94 0 -59 58 -120 115 -120 34 0 80
24 99 52 18 26 21 86 5 121 -23 52 -119 75 -167 41z"/>
<path d="M2540 2012 c-58 -59 -45 -153 27 -187 68 -33 143 1 162 73 15 51 -7
105 -51 128 -47 24 -105 18 -138 -14z"/>
<path d="M8220 2003 c-55 -22 -88 -92 -70 -148 22 -68 115 -98 177 -58 58 38
65 128 13 178 -28 27 -88 41 -120 28z"/>
<path d="M8481 1997 c-57 -29 -81 -106 -51 -162 32 -61 131 -75 180 -27 93 94
-13 249 -129 189z"/>
<path d="M1915 1791 c-85 -21 -194 -111 -233 -193 -25 -51 -52 -151 -52 -191
0 -47 20 -112 43 -140 20 -24 31 -27 137 -37 63 -5 148 -10 188 -10 l72 0 0
-32 c0 -18 7 -85 16 -148 18 -134 29 -150 101 -150 34 0 50 6 69 25 l26 26 -7
159 -8 159 594 3 c649 4 637 3 706 63 l37 32 9 173 c5 95 6 183 2 197 -7 29
-58 53 -97 46 -53 -10 -63 -34 -68 -167 l-5 -121 -432 -3 -433 -2 0 112 c0
102 -2 114 -20 125 -48 31 -129 25 -152 -11 -4 -6 -8 -57 -8 -113 0 -56 -4
-104 -9 -107 -17 -11 -141 -8 -155 3 -7 6 -16 30 -20 54 -17 108 -104 214
-199 242 -55 16 -58 16 -102 6z m92 -147 c40 -26 57 -63 56 -120 -3 -119 -60
-169 -216 -188 -42 -5 -51 -3 -73 19 -21 21 -24 33 -24 92 1 105 47 183 125
211 36 14 102 7 132 -14z"/>
<path d="M94 1760 c-12 -5 -24 -13 -27 -18 -3 -4 -7 -170 -8 -367 -1 -328 0
-360 16 -371 28 -21 91 -27 122 -12 l28 13 3 118 3 117 600 0 c577 0 601 1
638 20 68 34 78 63 85 245 7 180 3 199 -54 228 -42 22 -116 18 -154 -7 -25
-16 -26 -19 -26 -131 l0 -115 -302 2 -303 3 -5 128 c-4 99 -8 130 -20 137 -24
15 -103 12 -128 -6 -21 -14 -22 -22 -22 -146 l0 -131 -37 7 c-21 3 -44 6 -50
6 -10 0 -13 32 -13 124 0 118 -1 126 -22 140 -12 9 -34 16 -48 16 -14 0 -36
-7 -48 -16 -21 -14 -22 -22 -22 -146 l0 -131 -37 7 c-21 3 -44 6 -50 6 -10 0
-13 29 -13 113 0 134 -4 151 -36 166 -29 13 -41 13 -70 1z"/>
<path d="M3965 1713 c-76 -17 -125 -36 -148 -57 l-27 -25 0 -336 0 -336 26
-26 c22 -22 32 -25 76 -21 83 8 88 19 73 168 -7 69 -11 127 -10 129 2 2 51 -3
110 -9 83 -10 117 -10 159 -1 109 24 184 129 173 242 -4 51 -14 76 -73 190
-35 67 -92 88 -234 87 -58 0 -114 -2 -125 -5z m175 -104 c73 -17 124 -81 136
-172 12 -88 -43 -137 -155 -137 -124 0 -211 69 -211 167 0 67 47 117 130 139
56 16 47 15 100 3z"/>
<path d="M9304 1196 c-29 -29 -34 -41 -34 -80 0 -61 37 -105 96 -113 97 -13
164 80 119 167 -21 42 -53 60 -103 60 -37 0 -50 -6 -78 -34z"/>
<path d="M9574 1196 c-28 -28 -34 -41 -34 -78 0 -50 18 -82 60 -103 87 -45
180 22 167 119 -8 59 -52 96 -113 96 -39 0 -51 -5 -80 -34z"/>
<path d="M3424 1204 c-93 -46 -78 -185 24 -213 77 -22 142 31 142 116 0 47
-22 81 -66 99 -42 18 -61 17 -100 -2z"/>
<path d="M3615 684 c-11 -3 -30 -7 -42 -10 l-23 -4 0 -261 0 -261 128 3 c140
4 164 13 235 85 152 152 14 423 -228 447 -27 3 -59 3 -70 1z m170 -73 c94 -42
136 -149 104 -266 -25 -94 -100 -157 -188 -158 -96 -1 -91 -12 -88 206 2 106
7 200 11 209 14 32 101 37 161 9z"/>
<path d="M4571 668 c-81 -43 -131 -147 -99 -208 15 -28 71 -68 107 -77 32 -7
87 -57 108 -97 15 -28 14 -31 -6 -47 -13 -11 -48 -20 -89 -24 -102 -9 -136
-19 -140 -38 -5 -24 36 -37 116 -37 120 1 182 45 190 134 4 48 2 55 -17 61
-12 3 -50 35 -85 70 -93 91 -129 173 -91 205 16 13 111 9 149 -6 17 -7 17 -5
3 23 -33 62 -80 76 -146 41z"/>
<path d="M5190 667 c-57 -30 -101 -91 -107 -149 -5 -40 -2 -49 27 -81 20 -23
48 -41 73 -49 47 -13 101 -58 124 -102 15 -28 14 -31 -6 -47 -13 -11 -47 -20
-89 -23 -102 -9 -136 -19 -140 -38 -5 -25 36 -38 116 -38 118 1 192 55 192
141 0 33 -6 41 -54 77 -58 44 -113 107 -140 159 -21 41 -21 89 0 97 23 9 85 7
122 -3 39 -12 43 5 10 43 -33 38 -74 42 -128 13z"/>
<path d="M8110 667 c-57 -30 -101 -91 -107 -149 -5 -40 -2 -49 27 -81 20 -23
48 -41 73 -49 47 -13 101 -58 124 -102 15 -28 14 -31 -6 -47 -13 -11 -47 -20
-89 -23 -102 -9 -136 -19 -140 -38 -5 -25 36 -38 116 -38 118 1 192 55 192
141 0 33 -6 41 -54 77 -58 44 -113 107 -140 159 -21 41 -21 89 0 97 23 9 85 7
122 -3 39 -12 43 5 10 43 -33 38 -74 42 -128 13z"/>
<path d="M8725 685 c-5 -2 -27 -6 -47 -10 l-38 -6 0 -259 0 -260 108 0 c131 0
167 9 230 60 192 151 68 439 -203 474 -22 3 -44 3 -50 1z m185 -88 c48 -33 73
-86 78 -169 7 -117 -56 -214 -153 -236 -43 -9 -112 -5 -120 8 -8 13 -8 362 0
392 8 31 28 38 104 33 35 -3 66 -12 91 -28z"/>
<path d="M11600 668 c-65 -34 -102 -86 -108 -151 -4 -49 -2 -56 27 -84 17 -17
53 -39 81 -48 56 -19 120 -83 120 -122 0 -31 -25 -40 -133 -52 -80 -8 -117
-21 -117 -41 0 -15 64 -30 128 -30 117 0 184 50 186 138 1 37 -3 47 -24 61
-57 36 -141 127 -166 178 -22 45 -25 58 -16 78 10 22 18 25 61 25 27 0 62 -5
77 -10 15 -6 29 -9 31 -6 10 10 -27 63 -52 74 -35 16 -44 15 -95 -10z"/>
<path d="M1225 671 c-149 -37 -212 -198 -145 -373 27 -70 73 -123 136 -154 46
-23 63 -26 109 -21 62 6 138 43 143 69 3 16 1 16 -32 3 -75 -32 -166 -7 -239
63 -56 54 -81 107 -81 172 0 61 17 102 63 147 28 29 35 30 138 36 164 9 183
24 63 51 -73 17 -107 18 -155 7z"/>
<path d="M5623 666 c-62 -20 -98 -51 -127 -108 -21 -42 -26 -66 -26 -127 1
-131 60 -240 156 -287 45 -22 64 -26 107 -21 66 6 147 45 147 68 0 17 -3 17
-37 2 -76 -31 -183 4 -253 83 -43 50 -60 93 -60 153 0 63 11 91 54 139 l36 39
107 6 c164 9 183 24 63 51 -82 19 -111 19 -167 2z"/>
<path d="M7275 671 c-152 -37 -212 -195 -144 -378 56 -149 205 -211 339 -143
39 20 59 60 23 45 -133 -55 -308 62 -330 220 -4 36 -1 55 21 99 41 84 56 92
183 99 164 9 183 24 63 51 -73 17 -107 18 -155 7z"/>
<path d="M190 412 c0 -245 1 -261 19 -267 10 -3 26 -2 36 1 16 6 17 18 12 106
l-5 99 31 19 c17 11 52 22 77 25 25 4 52 9 60 12 21 8 -24 21 -78 22 -83 2
-119 82 -72 159 27 44 63 57 116 42 32 -9 47 -9 64 0 22 12 22 13 5 23 -11 6
-74 12 -142 15 l-123 5 0 -261z"/>
<path d="M636 443 c-49 -125 -95 -243 -103 -261 -13 -32 -13 -32 16 -32 24 0
29 5 35 31 14 74 78 119 165 119 78 0 116 -20 145 -77 43 -85 78 -94 78 -20 0
47 -9 72 -48 137 -18 30 -44 94 -57 141 -37 130 -63 170 -117 184 -24 6 -27 0
-114 -222z m157 51 c52 -120 27 -173 -75 -161 -28 4 -53 8 -55 10 -3 4 71 199
84 220 8 13 16 0 46 -69z"/>
<path d="M1576 543 c-3 -71 -8 -147 -12 -171 -9 -64 3 -109 42 -152 47 -52
106 -74 184 -68 64 5 97 22 134 72 19 24 21 44 24 168 3 177 -16 293 -45 264
-4 -4 -8 -67 -8 -139 -1 -102 -5 -143 -19 -181 -27 -74 -61 -121 -96 -136 -28
-11 -34 -11 -58 7 -15 10 -40 44 -55 74 l-29 54 7 147 c6 140 5 148 -14 167
-42 42 -49 30 -55 -106z"/>
<path d="M2080 410 l0 -260 144 0 c146 0 170 6 146 35 -9 11 -36 15 -106 15
-82 0 -97 3 -115 21 -16 16 -20 28 -14 53 7 34 18 220 18 305 0 44 -4 58 -22
73 -51 40 -51 38 -51 -242z"/>
<path d="M2441 661 c-42 -26 32 -59 110 -48 l39 5 0 -233 c0 -228 0 -233 21
-238 41 -11 47 0 51 91 2 48 -1 130 -5 182 -13 153 6 200 82 200 49 0 101 10
101 20 0 4 -20 13 -44 19 -53 13 -335 15 -355 2z"/>
<path d="M2920 411 l0 -261 155 0 c85 0 155 3 155 6 0 3 -5 14 -10 25 -10 17
-22 19 -110 19 -122 0 -130 5 -126 92 2 59 4 64 35 85 20 13 57 25 94 29 61 7
62 7 32 20 -16 7 -51 13 -76 14 -75 0 -108 62 -74 134 25 52 65 71 120 56 33
-9 48 -9 65 0 41 22 5 32 -129 38 l-131 5 0 -262z"/>
<path d="M4090 411 l0 -261 150 0 c116 0 150 3 150 13 0 29 -25 37 -121 37
-68 0 -100 4 -108 13 -6 8 -10 43 -8 83 2 69 2 69 39 87 20 10 59 20 88 24 66
8 52 21 -35 32 -83 10 -98 25 -92 94 7 78 61 119 127 97 26 -9 42 -9 65 0 28
11 29 12 11 22 -11 6 -75 13 -143 16 l-123 5 0 -262z"/>
<path d="M5990 411 c0 -253 1 -260 20 -266 44 -14 49 5 50 198 1 100 2 206 2
236 1 45 -3 57 -21 73 -51 40 -51 38 -51 -241z"/>
<path d="M6200 411 l0 -261 151 0 c150 0 150 0 147 23 -3 21 -8 22 -107 25
-58 1 -111 7 -118 13 -20 17 -14 138 7 159 17 17 99 40 142 40 46 0 0 21 -58
27 -74 7 -104 31 -104 82 0 20 9 51 20 69 27 44 63 57 116 42 32 -9 47 -9 64
0 22 12 22 13 5 23 -11 6 -74 12 -142 15 l-123 5 0 -262z"/>
<path d="M6590 409 c0 -243 1 -260 18 -257 9 2 25 20 36 41 17 36 18 49 8 162
-6 68 -7 136 -3 151 l7 27 27 -29 c15 -16 62 -85 105 -153 97 -157 143 -210
168 -195 28 16 33 54 35 243 2 176 -9 249 -37 258 -18 6 -24 -48 -24 -208 0
-152 -8 -184 -37 -143 -53 75 -105 158 -131 210 -17 34 -43 76 -58 94 -26 30
-78 60 -104 60 -7 0 -10 -88 -10 -261z"/>
<path d="M7630 411 l0 -261 150 0 c116 0 150 3 150 13 0 29 -25 37 -122 37
-119 0 -129 8 -119 105 6 57 8 61 43 78 20 10 59 20 88 24 66 8 52 21 -35 32
-48 5 -72 13 -81 26 -21 29 -17 98 7 129 33 42 55 50 103 36 31 -8 49 -8 71 0
28 11 29 12 11 22 -11 6 -75 13 -143 16 l-123 5 0 -262z"/>
<path d="M9180 411 l0 -261 151 0 c150 0 150 0 147 23 -3 21 -8 22 -107 25
-58 1 -111 8 -118 13 -8 8 -12 33 -10 80 2 55 7 72 22 83 21 15 100 36 137 36
48 0 -2 22 -61 27 -50 5 -65 11 -81 31 -37 46 -15 128 41 157 27 14 38 15 74
5 33 -9 48 -9 65 0 22 12 22 13 5 23 -11 6 -74 12 -142 15 l-123 5 0 -262z"/>
<path d="M9781 661 c-42 -26 32 -59 110 -48 l39 5 0 -233 c0 -227 1 -234 20
-240 12 -4 28 -1 36 6 14 11 15 43 12 221 -4 244 -6 238 97 249 92 9 101 23
28 40 -49 11 -324 11 -342 0z"/>
<path d="M10256 533 c-3 -76 -8 -158 -11 -183 -8 -60 24 -124 83 -165 60 -42
157 -47 221 -13 72 39 83 70 82 243 -1 146 -14 245 -32 245 -19 0 -27 -48 -22
-136 8 -137 -30 -263 -93 -313 -51 -40 -92 -19 -135 73 l-30 61 7 141 c6 136
6 142 -15 163 -43 43 -49 32 -55 -116z"/>
<path d="M10760 410 c0 -277 2 -287 46 -239 17 19 19 36 16 190 -2 93 -1 169
2 169 14 0 64 -67 134 -179 98 -157 144 -210 168 -195 28 16 33 53 35 243 2
131 -1 186 -12 216 -8 22 -19 39 -24 38 -18 -3 -23 -46 -24 -200 -1 -156 -9
-188 -38 -147 -53 75 -105 158 -131 210 -17 34 -43 76 -58 94 -26 30 -78 60
-104 60 -7 0 -10 -88 -10 -260z"/>
<path d="M11300 411 c0 -227 2 -260 16 -265 9 -3 23 -2 31 3 14 7 17 42 19
246 2 221 1 238 -17 256 -10 10 -26 19 -34 19 -13 0 -15 -35 -15 -259z"/>
</g>
</svg>
